<svg width="127" height="50" viewBox="0 0 127 50" fill="none" xmlns="http://www.w3.org/2000/svg">
<ellipse cx="48.9928" cy="46.2757" rx="2.60019" ry="2.77865" fill="#F8D24E"/>
<ellipse cx="54.6275" cy="42.5708" rx="2.60019" ry="2.77865" fill="#F8D24E"/>
<ellipse cx="61.1256" cy="38.4026" rx="2.60019" ry="2.77865" fill="#F8D24E"/>
<ellipse cx="67.1949" cy="34.6976" rx="2.60019" ry="2.77865" fill="#F8D24E"/>
<ellipse cx="63.7262" cy="44.4233" rx="2.60019" ry="2.77865" fill="#F8D24E"/>
<ellipse cx="69.3609" cy="40.7185" rx="2.60019" ry="2.77865" fill="#F8D24E"/>
<ellipse cx="75.86" cy="36.5505" rx="2.60019" ry="2.77865" fill="#F8D24E"/>
<ellipse cx="81.9293" cy="32.8459" rx="2.60019" ry="2.77865" fill="#F8D24E"/>
<ellipse cx="76.2955" cy="43.0343" rx="2.60019" ry="2.77865" fill="#F8D24E"/>
<ellipse cx="81.9303" cy="39.3289" rx="2.60019" ry="2.77865" fill="#F8D24E"/>
<ellipse cx="88.4303" cy="35.1611" rx="2.60019" ry="2.77865" fill="#F8D24E"/>
<ellipse cx="94.4957" cy="31.4569" rx="2.60019" ry="2.77865" fill="#F8D24E"/>
<ellipse cx="88.4283" cy="41.182" rx="2.60019" ry="2.77865" fill="#F8D24E"/>
<ellipse cx="94.0611" cy="37.4768" rx="2.60019" ry="2.77865" fill="#F8D24E"/>
<ellipse cx="100.561" cy="33.3089" rx="2.60019" ry="2.77865" fill="#F8D24E"/>
<ellipse cx="106.629" cy="29.6041" rx="2.60019" ry="2.77865" fill="#F8D24E"/>
<ellipse cx="92.3307" cy="46.2757" rx="2.60019" ry="2.77865" fill="#F8D24E"/>
<ellipse cx="97.9654" cy="42.5708" rx="2.60019" ry="2.77865" fill="#F8D24E"/>
<ellipse cx="105.765" cy="46.7387" rx="2.60019" ry="2.77865" fill="#F8D24E"/>
<ellipse cx="104.465" cy="38.4026" rx="2.60019" ry="2.77865" fill="#F8D24E"/>
<ellipse cx="112.266" cy="42.5708" rx="2.60019" ry="2.77865" fill="#F8D24E"/>
<ellipse cx="118.334" cy="46.7387" rx="2.60019" ry="2.77865" fill="#F8D24E"/>
<ellipse cx="110.533" cy="34.6976" rx="2.60019" ry="2.77865" fill="#F8D24E"/>
<ellipse cx="118.334" cy="38.8654" rx="2.60019" ry="2.77865" fill="#F8D24E"/>
<ellipse cx="124.401" cy="43.0338" rx="2.60019" ry="2.77865" fill="#F8D24E"/>
<ellipse cx="22.5592" cy="15.7111" rx="2.60019" ry="2.77865" fill="#F8D24E"/>
<ellipse cx="28.192" cy="12.0058" rx="2.60019" ry="2.77865" fill="#F8D24E"/>
<ellipse cx="34.6939" cy="7.83822" rx="2.60019" ry="2.77865" fill="#F8D24E"/>
<ellipse cx="40.7594" cy="4.13339" rx="2.60019" ry="2.77865" fill="#F8D24E"/>
<ellipse cx="11.7242" cy="15.247" rx="2.60019" ry="2.77865" fill="#F8D24E"/>
<ellipse cx="17.357" cy="11.5424" rx="2.60019" ry="2.77865" fill="#F8D24E"/>
<ellipse cx="23.857" cy="7.37485" rx="2.60019" ry="2.77865" fill="#F8D24E"/>
<ellipse cx="29.9244" cy="3.67001" rx="2.60019" ry="2.77865" fill="#F8D24E"/>
<ellipse cx="35.9918" cy="46.2757" rx="2.60019" ry="2.77865" fill="#F8D24E"/>
<ellipse cx="41.6246" cy="42.5708" rx="2.60019" ry="2.77865" fill="#F8D24E"/>
<ellipse cx="48.1246" cy="38.4026" rx="2.60019" ry="2.77865" fill="#F8D24E"/>
<ellipse cx="54.193" cy="34.6976" rx="2.60019" ry="2.77865" fill="#F8D24E"/>
<ellipse cx="29.0582" cy="43.4975" rx="2.60019" ry="2.77865" fill="#F8D24E"/>
<ellipse cx="34.692" cy="39.7926" rx="2.60019" ry="2.77865" fill="#F8D24E"/>
<ellipse cx="41.192" cy="35.6244" rx="2.60019" ry="2.77865" fill="#F8D24E"/>
<ellipse cx="47.2594" cy="31.9196" rx="2.60019" ry="2.77865" fill="#F8D24E"/>
<ellipse cx="31.6588" cy="33.7721" rx="2.60019" ry="2.77865" fill="#F8D24E"/>
<ellipse cx="37.2916" cy="30.0672" rx="2.60019" ry="2.77865" fill="#F8D24E"/>
<ellipse cx="43.7936" cy="25.899" rx="2.60019" ry="2.77865" fill="#F8D24E"/>
<ellipse cx="49.86" cy="22.1944" rx="2.60019" ry="2.77865" fill="#F8D24E"/>
<ellipse cx="31.6588" cy="17.5631" rx="2.60019" ry="2.77865" fill="#F8D24E"/>
<ellipse cx="37.2916" cy="13.8579" rx="2.60019" ry="2.77865" fill="#F8D24E"/>
<ellipse cx="43.7936" cy="9.69015" rx="2.60019" ry="2.77865" fill="#F8D24E"/>
<ellipse cx="49.86" cy="5.9852" rx="2.60019" ry="2.77865" fill="#F8D24E"/>
<ellipse cx="30.358" cy="26.3628" rx="2.60019" ry="2.77865" fill="#F8D24E"/>
<ellipse cx="35.9928" cy="22.6573" rx="2.60019" ry="2.77865" fill="#F8D24E"/>
<ellipse cx="42.4918" cy="18.4896" rx="2.60019" ry="2.77865" fill="#F8D24E"/>
<ellipse cx="48.5592" cy="14.7849" rx="2.60019" ry="2.77865" fill="#F8D24E"/>
<ellipse cx="3.05625" cy="12.9317" rx="2.60019" ry="2.77865" fill="#F8D24E"/>
<ellipse cx="8.69101" cy="9.22677" rx="2.60019" ry="2.77865" fill="#F8D24E"/>
<ellipse cx="15.191" cy="5.05917" rx="2.60019" ry="2.77865" fill="#F8D24E"/>
<path d="M14.7574 15.7104C16.1935 15.7104 17.3576 14.4663 17.3576 12.9317C17.3576 11.3971 16.1935 10.1531 14.7574 10.1531C13.3214 10.1531 12.1572 11.3971 12.1572 12.9317C12.1572 14.4663 13.3214 15.7104 14.7574 15.7104Z" fill="#F8D24E"/>
</svg>
