<svg width="183" height="69" viewBox="0 0 183 69" fill="none" xmlns="http://www.w3.org/2000/svg">
<ellipse cx="70.8539" cy="63.7614" rx="4.00522" ry="3.98792" fill="#F8D24E"/>
<ellipse cx="78.8646" cy="58.7765" rx="4.00522" ry="3.98792" fill="#F8D24E"/>
<ellipse cx="88.8773" cy="52.7946" rx="4.00522" ry="3.98792" fill="#F8D24E"/>
<ellipse cx="96.888" cy="47.8097" rx="4.00522" ry="3.98792" fill="#F8D24E"/>
<ellipse cx="91.8812" cy="61.7675" rx="4.00522" ry="3.98792" fill="#F8D24E"/>
<ellipse cx="99.8919" cy="56.7826" rx="4.00522" ry="3.98792" fill="#F8D24E"/>
<ellipse cx="109.905" cy="50.8007" rx="4.00522" ry="3.98792" fill="#F8D24E"/>
<ellipse cx="117.915" cy="45.8158" rx="4.00522" ry="3.98792" fill="#F8D24E"/>
<ellipse cx="109.905" cy="59.7733" rx="4.00522" ry="3.98792" fill="#F8D24E"/>
<ellipse cx="117.915" cy="54.7885" rx="4.00522" ry="3.98792" fill="#F8D24E"/>
<ellipse cx="127.928" cy="48.8065" rx="4.00522" ry="3.98792" fill="#F8D24E"/>
<ellipse cx="135.939" cy="43.8217" rx="4.00522" ry="3.98792" fill="#F8D24E"/>
<ellipse cx="127.928" cy="56.7826" rx="4.00522" ry="3.98792" fill="#F8D24E"/>
<ellipse cx="135.939" cy="51.7977" rx="4.00522" ry="3.98792" fill="#F8D24E"/>
<ellipse cx="145.952" cy="45.8158" rx="4.00522" ry="3.98792" fill="#F8D24E"/>
<ellipse cx="153.962" cy="40.8309" rx="4.00522" ry="3.98792" fill="#F8D24E"/>
<ellipse cx="132.935" cy="63.7614" rx="4.00522" ry="3.98792" fill="#F8D24E"/>
<ellipse cx="140.945" cy="58.7765" rx="4.00522" ry="3.98792" fill="#F8D24E"/>
<ellipse cx="151.96" cy="64.7584" rx="4.00522" ry="3.98792" fill="#F8D24E"/>
<ellipse cx="150.958" cy="52.7946" rx="4.00522" ry="3.98792" fill="#F8D24E"/>
<ellipse cx="161.973" cy="58.7765" rx="4.00522" ry="3.98792" fill="#F8D24E"/>
<ellipse cx="170.984" cy="64.7584" rx="4.00522" ry="3.98792" fill="#F8D24E"/>
<ellipse cx="158.969" cy="47.8097" rx="4.00522" ry="3.98792" fill="#F8D24E"/>
<ellipse cx="170.984" cy="53.7916" rx="4.00522" ry="3.98792" fill="#F8D24E"/>
<ellipse cx="178.995" cy="59.7736" rx="4.00522" ry="3.98792" fill="#F8D24E"/>
<ellipse cx="32.8045" cy="21.8883" rx="4.00522" ry="3.98792" fill="#F8D24E"/>
<ellipse cx="40.8148" cy="16.9034" rx="4.00522" ry="3.98792" fill="#F8D24E"/>
<ellipse cx="50.828" cy="10.9215" rx="4.00522" ry="3.98792" fill="#F8D24E"/>
<ellipse cx="58.8382" cy="5.93665" rx="4.00522" ry="3.98792" fill="#F8D24E"/>
<ellipse cx="16.7835" cy="20.8912" rx="4.00522" ry="3.98792" fill="#F8D24E"/>
<ellipse cx="24.7938" cy="15.9064" rx="4.00522" ry="3.98792" fill="#F8D24E"/>
<ellipse cx="34.807" cy="9.92444" rx="4.00522" ry="3.98792" fill="#F8D24E"/>
<ellipse cx="42.8177" cy="4.93958" rx="4.00522" ry="3.98792" fill="#F8D24E"/>
<ellipse cx="51.8294" cy="63.7614" rx="4.00522" ry="3.98792" fill="#F8D24E"/>
<ellipse cx="59.8397" cy="58.7765" rx="4.00522" ry="3.98792" fill="#F8D24E"/>
<ellipse cx="69.8529" cy="52.7946" rx="4.00522" ry="3.98792" fill="#F8D24E"/>
<ellipse cx="77.8631" cy="47.8097" rx="4.00522" ry="3.98792" fill="#F8D24E"/>
<ellipse cx="41.8162" cy="60.7704" rx="4.00522" ry="3.98792" fill="#F8D24E"/>
<ellipse cx="49.8265" cy="55.7855" rx="4.00522" ry="3.98792" fill="#F8D24E"/>
<ellipse cx="59.8397" cy="49.8036" rx="4.00522" ry="3.98792" fill="#F8D24E"/>
<ellipse cx="67.8499" cy="44.8187" rx="4.00522" ry="3.98792" fill="#F8D24E"/>
<ellipse cx="45.8216" cy="46.8126" rx="4.00522" ry="3.98792" fill="#F8D24E"/>
<ellipse cx="53.8319" cy="41.8278" rx="4.00522" ry="3.98792" fill="#F8D24E"/>
<ellipse cx="63.8451" cy="35.8458" rx="4.00522" ry="3.98792" fill="#F8D24E"/>
<ellipse cx="71.8553" cy="30.861" rx="4.00522" ry="3.98792" fill="#F8D24E"/>
<ellipse cx="45.8216" cy="23.8822" rx="4.00522" ry="3.98792" fill="#F8D24E"/>
<ellipse cx="53.8319" cy="18.8973" rx="4.00522" ry="3.98792" fill="#F8D24E"/>
<ellipse cx="63.8451" cy="12.9154" rx="4.00522" ry="3.98792" fill="#F8D24E"/>
<ellipse cx="71.8553" cy="7.93054" rx="4.00522" ry="3.98792" fill="#F8D24E"/>
<ellipse cx="43.8187" cy="36.8429" rx="4.00522" ry="3.98792" fill="#F8D24E"/>
<ellipse cx="51.8294" cy="31.858" rx="4.00522" ry="3.98792" fill="#F8D24E"/>
<ellipse cx="61.8421" cy="25.8761" rx="4.00522" ry="3.98792" fill="#F8D24E"/>
<ellipse cx="69.8529" cy="20.8912" rx="4.00522" ry="3.98792" fill="#F8D24E"/>
<ellipse cx="4.26726" cy="17.9003" rx="3.50456" ry="3.98792" fill="#F8D24E"/>
<ellipse cx="12.2775" cy="12.9154" rx="3.50456" ry="3.98792" fill="#F8D24E"/>
<ellipse cx="22.2907" cy="6.93347" rx="3.50456" ry="3.98792" fill="#F8D24E"/>
<path d="M21.2892 21.8882C23.2247 21.8882 24.7938 20.1027 24.7938 17.9003C24.7938 15.6978 23.2247 13.9124 21.2892 13.9124C19.3537 13.9124 17.7847 15.6978 17.7847 17.9003C17.7847 20.1027 19.3537 21.8882 21.2892 21.8882Z" fill="#F8D24E"/>
</svg>
